<svg width="24" height="24" viewBox="0 0 24 24" fill="none" xmlns="http://www.w3.org/2000/svg">
<rect width="24" height="24" rx="4" fill="#D5E8CF"/>
<path d="M11.2426 18C10.7931 18 10.4434 17.6093 10.4931 17.1625L10.8853 13.6322C10.9465 13.0815 10.5155 12.6 9.96149 12.6V12.6C9.17733 12.6 8.74553 11.6888 9.24209 11.0819L13.1737 6.2766C13.3169 6.10153 13.5312 6 13.7574 6V6C14.2069 6 14.5566 6.39071 14.5069 6.83746L14.1147 10.3678C14.0535 10.9185 14.4845 11.4 15.0385 11.4V11.4C15.8227 11.4 16.2545 12.3112 15.7579 12.9181L11.8263 17.7234C11.6831 17.8985 11.4688 18 11.2426 18V18Z" fill="#101F10"/>
</svg>
